# xmcd CD database file
#
# Track frame offsets:
#	182
#	17832
#	52782
#	91882
#	130032
#	156082
#	203807
#
# Disc length: 3030 seconds
#
# Revision: 0
# Processed by: cddbd v1.5.2PL0 Copyright (c) Steve Scherf et al.
# Submitted via: CDex 1.51
#
DISCID=4c0bd407
DTITLE=Willers,Andreas - The Private Ear
DYEAR=1990
DGENRE=Jazz
TTITLE0=The Private Ear
TTITLE1=Left Over Right
TTITLE2=Late News
TTITLE3=Leaving Us
TTITLE4=Petite Theatre
TTITLE5=The Storm - Around The Fish - Berlin By The Sea
TTITLE6=True Tune
EXTD=YEAR: 1990
EXTT0=
EXTT1=
EXTT2=
EXTT3=
EXTT4=
EXTT5=
EXTT6=
PLAYORDER=
